<mxfile host="app.diagrams.net" agent="Mozilla/5.0 (Windows NT 10.0; Win64; x64) AppleWebKit/537.36 (KHTML, like Gecko) Chrome/138.0.0.0 Safari/537.36" version="27.2.0">
  <diagram name="Architecture" id="wESn1yHIpQciCKVw4hvx">
    <mxGraphModel dx="1187" dy="1022" grid="1" gridSize="10" guides="1" tooltips="1" connect="1" arrows="1" fold="1" page="1" pageScale="1" pageWidth="850" pageHeight="1100" math="0" shadow="0">
      <root>
        <mxCell id="0" />
        <mxCell id="1" parent="0" />
        <mxCell id="ReZV5Cn2HRO34vYH6zyg-1" value="API (.NET 9)" style="rounded=1;whiteSpace=wrap;html=1;fillColor=#dae8fc;strokeColor=#6c8ebf;" vertex="1" parent="1">
          <mxGeometry x="360" y="20" width="180" height="60" as="geometry" />
        </mxCell>
        <mxCell id="ReZV5Cn2HRO34vYH6zyg-2" value="Application&lt;br&gt;Business logic + Validators" style="rounded=1;whiteSpace=wrap;html=1;fillColor=#e1d5e7;strokeColor=#9673a6;" vertex="1" parent="1">
          <mxGeometry x="360" y="110" width="180" height="60" as="geometry" />
        </mxCell>
        <mxCell id="ReZV5Cn2HRO34vYH6zyg-3" value="Domain&lt;br&gt;Entities, Value Objects" style="rounded=1;whiteSpace=wrap;html=1;fillColor=#d5e8d4;strokeColor=#82b366;" vertex="1" parent="1">
          <mxGeometry x="360" y="200" width="180" height="60" as="geometry" />
        </mxCell>
        <mxCell id="ReZV5Cn2HRO34vYH6zyg-4" value="Infrastructure&lt;br&gt;EF Core Â· Identity" style="rounded=1;whiteSpace=wrap;html=1;fillColor=#ffe6cc;strokeColor=#d79b00;" vertex="1" parent="1">
          <mxGeometry x="360" y="290" width="180" height="80" as="geometry" />
        </mxCell>
        <mxCell id="ReZV5Cn2HRO34vYH6zyg-5" value="Tests&#xa;Unit + Integration" style="rounded=1;whiteSpace=wrap;html=1;fillColor=#f8cecc;strokeColor=#b85450;" vertex="1" parent="1">
          <mxGeometry x="360" y="390" width="180" height="60" as="geometry" />
        </mxCell>
        <mxCell id="ReZV5Cn2HRO34vYH6zyg-6" style="endArrow=block;endFill=1;" edge="1" parent="1" source="ReZV5Cn2HRO34vYH6zyg-1" target="ReZV5Cn2HRO34vYH6zyg-2">
          <mxGeometry relative="1" as="geometry" />
        </mxCell>
        <mxCell id="ReZV5Cn2HRO34vYH6zyg-7" style="endArrow=block;endFill=1;" edge="1" parent="1" source="ReZV5Cn2HRO34vYH6zyg-2" target="ReZV5Cn2HRO34vYH6zyg-3">
          <mxGeometry relative="1" as="geometry" />
        </mxCell>
        <mxCell id="ReZV5Cn2HRO34vYH6zyg-8" style="endArrow=block;endFill=1;" edge="1" parent="1" source="ReZV5Cn2HRO34vYH6zyg-2" target="ReZV5Cn2HRO34vYH6zyg-4">
          <mxGeometry relative="1" as="geometry" />
        </mxCell>
        <mxCell id="ReZV5Cn2HRO34vYH6zyg-9" style="endArrow=block;endFill=1;" edge="1" parent="1" source="ReZV5Cn2HRO34vYH6zyg-3" target="ReZV5Cn2HRO34vYH6zyg-4">
          <mxGeometry relative="1" as="geometry" />
        </mxCell>
      </root>
    </mxGraphModel>
  </diagram>
</mxfile>
